<svg width="952" height="230" viewBox="0 0 952 230" fill="none" xmlns="http://www.w3.org/2000/svg">
<path d="M114.071 82.9879C120.727 82.9879 126.666 84.3703 131.889 87.1351C137.214 89.8999 141.361 93.9959 144.33 99.4231C147.402 104.85 148.938 111.404 148.938 119.084V169.004H131.582V121.695C131.582 114.117 129.687 108.332 125.898 104.338C122.11 100.242 116.938 98.1943 110.385 98.1943C103.831 98.1943 98.6088 100.242 94.7176 104.338C90.9288 108.332 89.0344 114.117 89.0344 121.695V169.004H71.6776V121.695C71.6776 114.117 69.7832 108.332 65.9944 104.338C62.2056 100.242 57.0344 98.1943 50.4808 98.1943C43.9272 98.1943 38.7048 100.242 34.8136 104.338C31.0248 108.332 29.1304 114.117 29.1304 121.695V169.004H11.62V84.3703H29.1304V94.0471C31.9976 90.5655 35.6328 87.8519 40.036 85.9063C44.4392 83.9607 49.1496 82.9879 54.1672 82.9879C60.9256 82.9879 66.9672 84.4215 72.292 87.2887C77.6168 90.1559 81.7128 94.3031 84.58 99.7303C87.14 94.6103 91.1336 90.5655 96.5608 87.5959C101.988 84.5239 107.825 82.9879 114.071 82.9879ZM165.383 126.303C165.383 117.804 167.124 110.278 170.606 103.724C174.19 97.1703 179.002 92.1015 185.044 88.5175C191.188 84.8311 197.946 82.9879 205.319 82.9879C211.975 82.9879 217.761 84.3191 222.676 86.9815C227.694 89.5415 231.687 92.7671 234.657 96.6583V84.3703H252.321V169.004H234.657V156.409C231.687 160.402 227.642 163.73 222.522 166.393C217.402 169.055 211.566 170.386 205.012 170.386C197.742 170.386 191.086 168.543 185.044 164.857C179.002 161.068 174.19 155.846 170.606 149.19C167.124 142.431 165.383 134.802 165.383 126.303ZM234.657 126.61C234.657 120.774 233.428 115.705 230.97 111.404C228.615 107.103 225.492 103.826 221.601 101.574C217.71 99.3207 213.511 98.1943 209.006 98.1943C204.5 98.1943 200.302 99.3207 196.41 101.574C192.519 103.724 189.345 106.95 186.887 111.25C184.532 115.449 183.354 120.466 183.354 126.303C183.354 132.14 184.532 137.26 186.887 141.663C189.345 146.066 192.519 149.446 196.41 151.801C200.404 154.054 204.602 155.18 209.006 155.18C213.511 155.18 217.71 154.054 221.601 151.801C225.492 149.548 228.615 146.271 230.97 141.97C233.428 137.567 234.657 132.447 234.657 126.61ZM269.483 126.303C269.483 117.804 271.224 110.278 274.706 103.724C278.29 97.1703 283.102 92.1015 289.144 88.5175C295.288 84.8311 302.098 82.9879 309.573 82.9879C316.126 82.9879 321.912 84.3191 326.93 86.9815C332.05 89.6439 335.992 92.8695 338.757 96.6583V84.3703H356.421V209.247H338.757V156.716C335.992 160.505 331.998 163.73 326.776 166.393C321.554 169.055 315.614 170.386 308.958 170.386C301.688 170.386 295.032 168.543 288.99 164.857C283.051 161.068 278.29 155.846 274.706 149.19C271.224 142.431 269.483 134.802 269.483 126.303ZM338.757 126.61C338.757 120.774 337.528 115.705 335.07 111.404C332.715 107.103 329.592 103.826 325.701 101.574C321.81 99.3207 317.611 98.1943 313.106 98.1943C308.6 98.1943 304.402 99.3207 300.51 101.574C296.619 103.724 293.445 106.95 290.987 111.25C288.632 115.449 287.454 120.466 287.454 126.303C287.454 132.14 288.632 137.26 290.987 141.663C293.445 146.066 296.619 149.446 300.51 151.801C304.504 154.054 308.702 155.18 313.106 155.18C317.611 155.18 321.81 154.054 325.701 151.801C329.592 149.548 332.715 146.271 335.07 141.97C337.528 137.567 338.757 132.447 338.757 126.61Z" fill="white"></path>
<path d="M462.004 29.4086C457.576 29.8664 453.057 30.7166 448.901 31.8611C429.671 37.1911 413.11 49.8784 402.251 67.6668C399.46 72.2774 395.396 81.237 393.728 86.5343C390.634 96.3441 389.299 104.813 389.269 115.081C389.239 118.154 389.148 120.64 389.026 120.64C388.905 120.64 387.146 118.808 385.083 116.552C380.988 112.072 380.291 111.68 378.289 112.596C376.317 113.478 375.438 115.996 376.378 117.958C376.621 118.449 380.078 122.307 384.052 126.558C391.756 134.831 392.15 135.125 394.274 134.373C395.639 133.916 409.652 118.481 410.046 117.01C410.744 114.492 408.954 112.138 406.315 112.138C405.011 112.138 404.89 112.236 400.977 116.389C398.793 118.71 396.913 120.64 396.791 120.64C396.397 120.64 396.579 110.012 397.034 105.925C400.856 72.7025 422.937 46.2815 452.844 39.0549C462.732 36.6679 474.562 36.6352 484.541 38.9241C497.735 41.9979 510.869 49.8457 520.696 60.5711C522.85 62.8927 524.276 64.2007 524.943 64.4296C527.46 65.1817 530.008 62.533 529.523 59.6228C529.402 58.9688 528.158 57.3992 525.367 54.3909C512.871 40.9842 497.887 32.8748 480.295 30.0626C475.623 29.3105 466.19 28.9509 462.004 29.4086Z" fill="white"></path>
<path d="M463.977 76.2628C457.971 82.5084 440.348 101.834 439.985 102.553C439.135 104.286 440.045 107.229 441.653 107.883C442.077 108.079 442.896 108.21 443.503 108.21C444.504 108.21 445.02 107.752 449.63 102.847C452.39 99.9044 456.849 95.1303 459.518 92.2201C462.187 89.3425 464.462 86.9555 464.584 86.9555C464.705 86.9555 464.857 104.155 464.887 125.181C464.978 163.406 464.978 163.439 465.615 164.355C465.948 164.845 466.798 165.466 467.465 165.728C468.527 166.153 468.86 166.153 469.861 165.728C470.529 165.466 471.317 164.78 471.711 164.158L472.409 163.047V124.756V86.465L482.51 97.3538L492.61 108.21H493.884C495.734 108.21 496.826 107.491 497.402 105.921C498.373 103.272 498.616 103.567 483.693 87.5114L470.104 72.8948H468.648C467.222 72.8948 467.162 72.9275 463.977 76.2628Z" fill="white"></path>
<path d="M541.996 101.145L540.874 102.355L541.086 105.199C541.753 115.434 541.602 121.058 540.48 128.481C537.052 150.815 524.586 170.925 506.842 182.631C485.488 196.725 458.917 198 436.624 186.032C429.223 182.075 424.218 178.184 417.575 171.187L412.935 166.347L411.418 166.478C409.477 166.707 408.142 167.982 407.899 169.879C407.687 171.644 408.809 173.345 413.056 177.726C426.584 191.689 442.629 199.668 461.465 201.76C465.803 202.251 476.298 201.957 480.605 201.27C484.699 200.583 491.615 198.752 495.558 197.281C499.896 195.678 508.935 190.806 512.999 187.896C521.644 181.65 529.803 172.854 535.323 163.862C543.755 150.063 548.305 134.661 548.76 118.508C548.942 111.837 548.487 104.251 547.82 102.518C547.213 100.981 546.303 100.294 544.605 100.098C543.209 99.9675 543.027 100.033 541.996 101.145Z" fill="white"></path>
<path d="M671.022 82.984C677.678 82.984 683.617 84.3664 688.84 87.1312C694.164 89.896 698.312 93.992 701.281 99.4192C704.353 104.846 705.889 111.4 705.889 119.08V169H688.532V121.691C688.532 114.114 686.638 108.328 682.849 104.334C679.06 100.238 673.889 98.1904 667.336 98.1904C660.782 98.1904 655.56 100.238 651.668 104.334C647.88 108.328 645.985 114.114 645.985 121.691V169H628.628V121.691C628.628 114.114 626.734 108.328 622.945 104.334C619.156 100.238 613.985 98.1904 607.432 98.1904C600.878 98.1904 595.656 100.238 591.764 104.334C587.976 108.328 586.081 114.114 586.081 121.691V169H568.571V84.3664H586.081V94.0432C588.948 90.5616 592.584 87.848 596.987 85.9024C601.39 83.9568 606.1 82.984 611.118 82.984C617.876 82.984 623.918 84.4176 629.243 87.2848C634.568 90.152 638.664 94.2992 641.531 99.7264C644.091 94.6064 648.084 90.5616 653.512 87.592C658.939 84.52 664.776 82.984 671.022 82.984Z" fill="white"></path>
<path d="M738.462 170.229C733.854 170.229 730.065 168.898 727.096 166.235C724.228 163.47 722.795 160.091 722.795 156.098C722.795 152.002 724.228 148.571 727.096 145.806C730.065 143.042 733.854 141.659 738.462 141.659C742.968 141.659 746.654 143.042 749.521 145.806C752.491 148.571 753.976 152.002 753.976 156.098C753.976 160.091 752.491 163.47 749.521 166.235C746.654 168.898 742.968 170.229 738.462 170.229ZM766.606 126.76C766.606 118.056 768.346 110.478 771.828 104.027C775.31 97.4736 780.122 92.4048 786.266 88.8208C792.513 85.2368 799.63 83.4448 807.617 83.4448C817.959 83.4448 826.458 85.9536 833.114 90.9712C839.873 95.9888 844.327 102.952 846.478 111.861H831.425C829.991 106.741 827.175 102.696 822.977 99.7264C818.881 96.7568 813.761 95.272 807.617 95.272C799.63 95.272 793.178 98.0368 788.263 103.566C783.348 108.994 780.89 116.725 780.89 126.76C780.89 136.898 783.348 144.731 788.263 150.261C793.178 155.79 799.63 158.555 807.617 158.555C813.761 158.555 818.881 157.122 822.977 154.254C827.073 151.387 829.889 147.291 831.425 141.966H846.478C844.225 150.568 839.719 157.48 832.961 162.702C826.202 167.822 817.754 170.382 807.617 170.382C799.63 170.382 792.513 168.59 786.266 165.006C780.122 161.422 775.31 156.354 771.828 149.8C768.346 143.246 766.606 135.566 766.606 126.76ZM901.838 170.382C893.954 170.382 886.786 168.59 880.334 165.006C873.986 161.422 868.968 156.354 865.282 149.8C861.698 143.144 859.906 135.464 859.906 126.76C859.906 118.158 861.749 110.581 865.435 104.027C869.224 97.3712 874.344 92.3024 880.795 88.8208C887.246 85.2368 894.466 83.4448 902.453 83.4448C910.44 83.4448 917.659 85.2368 924.11 88.8208C930.562 92.3024 935.63 97.32 939.317 103.874C943.106 110.427 945 118.056 945 126.76C945 135.464 943.054 143.144 939.163 149.8C935.374 156.354 930.203 161.422 923.65 165.006C917.096 168.59 909.826 170.382 901.838 170.382ZM901.838 158.094C906.856 158.094 911.566 156.917 915.97 154.562C920.373 152.206 923.906 148.674 926.568 143.963C929.333 139.253 930.715 133.518 930.715 126.76C930.715 120.002 929.384 114.267 926.722 109.557C924.059 104.846 920.578 101.365 916.277 99.112C911.976 96.7568 907.317 95.5792 902.299 95.5792C897.179 95.5792 892.469 96.7568 888.168 99.112C883.97 101.365 880.59 104.846 878.03 109.557C875.47 114.267 874.19 120.002 874.19 126.76C874.19 133.621 875.419 139.406 877.877 144.117C880.437 148.827 883.816 152.36 888.014 154.715C892.213 156.968 896.821 158.094 901.838 158.094Z" fill="#A3A3A3"></path>
</svg>